<?xml version="1.0" encoding="UTF-8" standalone="no"?>
<!-- Created with Inkscape (http://www.inkscape.org/) -->

<svg
   version="1.1"
   id="svg2"
   width="171.56"
   height="163.48085"
   viewBox="0 0 171.56 163.48085"
   sodipodi:docname="gssi-quadrato_vettoriale.svg"
   xmlns:inkscape="http://www.inkscape.org/namespaces/inkscape"
   xmlns:sodipodi="http://sodipodi.sourceforge.net/DTD/sodipodi-0.dtd"
   xmlns="http://www.w3.org/2000/svg"
   xmlns:svg="http://www.w3.org/2000/svg">
  <defs
     id="defs6" />
  <sodipodi:namedview
     id="namedview4"
     pagecolor="#ffffff"
     bordercolor="#000000"
     borderopacity="0.25"
     inkscape:showpageshadow="2"
     inkscape:pageopacity="0.0"
     inkscape:pagecheckerboard="0"
     inkscape:deskcolor="#d1d1d1"
     showgrid="false" />
  <g
     id="g8"
     inkscape:groupmode="layer"
     inkscape:label="ink_ext_XXXXXX"
     transform="matrix(1.3333333,0,0,-1.3333333,-0.77309156,679.37719)">
    <g
       id="g10"
       transform="matrix(0.02403169,0,0,0.02403169,0.57981913,386.92226)">
      <path
         d="m 1992.35,4553.12 c 91.26,-48.63 147.11,-133.83 167.53,-255.6 h -124.94 c -14.9,68.07 -45.75,117.65 -92.55,148.73 -46.8,31.08 -105.79,46.62 -177,46.62 -84.48,0 -155.6,-32.35 -213.36,-97.05 -57.76,-64.69 -86.64,-161.09 -86.64,-289.21 0,-110.78 23.82,-200.95 71.48,-270.5 47.65,-69.56 125.34,-104.33 233.08,-104.33 82.45,0 150.72,24.42 204.81,73.25 54.06,48.84 81.74,127.8 83.01,236.89 h -291.75 v 104.65 h 409.08 v -498.51 h -81.18 l -30.44,119.87 c -42.02,-46.93 -79.24,-79.5 -111.68,-97.68 -54.49,-31.28 -123.74,-46.93 -207.76,-46.93 -108.57,0 -201.95,35.73 -280.14,107.19 -85.26,89.64 -127.9,212.68 -127.9,369.13 0,156.02 41.68,280.11 125.02,372.3 79.18,87.94 181.7,131.92 307.56,131.92 86.26,0 160.84,-16.92 223.77,-50.74"
         style="fill:#040606;fill-opacity:1;fill-rule:nonzero;stroke:none"
         id="path12" />
      <path
         d="M 2693.56,1422.04 H 893.563 v 1860 H 2693.56 v -1860"
         style="fill:#f57724;fill-opacity:1;fill-rule:nonzero;stroke:none"
         id="path14" />
      <path
         d="m 3314.61,3948.69 c 2.86,-52.87 14.87,-95.78 36.04,-128.75 40.32,-61.74 111.4,-92.6 213.22,-92.6 45.62,0 87.16,6.76 124.64,20.29 72.5,26.21 108.76,73.15 108.76,140.8 0,50.74 -15.37,86.9 -46.09,108.46 -31.13,21.14 -79.87,39.53 -146.23,55.18 l -122.27,28.54 c -79.87,18.6 -136.4,39.1 -169.58,61.52 -57.35,38.89 -86.02,97.04 -86.02,174.42 0,83.72 28.18,152.42 84.55,206.13 56.37,53.69 136.2,80.54 239.48,80.54 95.05,0 175.79,-23.57 242.26,-70.72 66.44,-47.14 99.66,-122.51 99.66,-226.1 h -118.6 c -6.08,49.89 -19.05,88.16 -38.92,114.8 -36.89,48.61 -99.53,72.94 -187.89,72.94 -71.34,0 -122.63,-15.66 -153.84,-46.94 -31.23,-31.3 -46.82,-67.65 -46.82,-109.09 0,-45.66 18.43,-79.07 55.3,-100.21 24.17,-13.54 78.86,-30.44 164.08,-50.74 l 126.6,-29.81 c 61.03,-14.38 108.15,-34.04 141.32,-58.98 57.37,-43.56 86.05,-106.77 86.05,-189.64 0,-103.17 -36.59,-176.95 -109.8,-221.35 -73.19,-44.4 -158.24,-66.59 -255.13,-66.59 -113,0 -201.45,29.58 -265.35,88.79 -63.96,58.76 -95.3,138.47 -94.03,239.11 h 118.61"
         style="fill:#040606;fill-opacity:1;fill-rule:nonzero;stroke:none"
         id="path16" />
      <path
         d="m 1534.61,2128.68 c 2.85,-52.85 14.86,-95.76 36.04,-128.75 40.32,-61.74 111.4,-92.6 213.22,-92.6 45.62,0 87.16,6.76 124.64,20.3 72.5,26.21 108.76,73.14 108.76,140.8 0,50.74 -15.36,86.89 -46.09,108.45 -31.13,21.15 -79.87,39.53 -146.23,55.19 l -122.27,28.54 c -79.87,18.6 -136.4,39.11 -169.58,61.52 -57.35,38.89 -86.02,97.04 -86.02,174.42 0,83.72 28.18,152.42 84.55,206.12 56.37,53.7 136.2,80.55 239.48,80.55 95.05,0 175.8,-23.57 242.25,-70.72 66.45,-47.14 99.67,-122.51 99.67,-226.1 h -118.6 c -6.08,49.88 -19.05,88.16 -38.92,114.8 -36.89,48.61 -99.52,72.93 -187.89,72.93 -71.35,0 -122.63,-15.64 -153.85,-46.93 -31.22,-31.3 -46.82,-67.66 -46.82,-109.09 0,-45.66 18.44,-79.08 55.31,-100.21 24.17,-13.54 78.86,-30.45 164.08,-50.74 l 126.59,-29.81 c 61.05,-14.37 108.16,-34.04 141.34,-58.98 57.36,-43.56 86.04,-106.78 86.04,-189.64 0,-103.17 -36.6,-176.95 -109.8,-221.36 -73.19,-44.39 -158.24,-66.58 -255.14,-66.58 -112.99,0 -201.44,29.59 -265.35,88.79 -63.95,58.77 -95.28,138.48 -94.02,239.1 h 118.61"
         style="fill:#ffffff;fill-opacity:1;fill-rule:nonzero;stroke:none"
         id="path18" />
      <path
         d="m 3530.69,2759.75 h 127.49 v -931.69 h -127.49 v 931.69"
         style="fill:#040606;fill-opacity:1;fill-rule:nonzero;stroke:none"
         id="path20" />
      <path
         d="m 1172.71,932.648 c 38.44,-20.476 61.95,-56.359 70.56,-107.648 h -52.62 c -6.28,28.672 -19.27,49.551 -38.98,62.641 -19.71,13.089 -44.55,19.629 -74.54,19.629 -35.58,0 -65.53,-13.618 -89.857,-40.86 -24.328,-27.25 -36.492,-67.859 -36.492,-121.808 0,-46.653 10.035,-84.633 30.106,-113.922 20.063,-29.289 52.783,-43.938 98.163,-43.938 34.73,0 63.48,10.278 86.25,30.86 22.77,20.558 34.43,53.808 34.96,99.75 h -122.87 v 44.078 h 172.29 V 551.48 h -34.19 l -12.82,50.481 c -17.7,-19.762 -33.38,-33.473 -47.03,-41.129 -22.96,-13.172 -52.12,-19.773 -87.5,-19.773 -45.73,0 -85.054,15.05 -117.984,45.152 -35.906,37.738 -53.859,89.57 -53.859,155.461 0,65.699 17.547,117.969 52.644,156.789 33.352,37.039 76.519,55.551 129.529,55.551 36.33,0 67.74,-7.121 94.24,-21.364"
         style="fill:#040606;fill-opacity:1;fill-rule:nonzero;stroke:none"
         id="path22" />
      <path
         d="m 1516.08,764.102 c 24.23,0 43.41,4.98 57.53,14.957 14.11,9.972 21.17,27.953 21.17,53.961 0,27.949 -9.87,47.011 -29.61,57.152 -10.57,5.348 -24.68,8.019 -42.34,8.019 H 1396.59 V 764.102 Z m -172.65,179.769 h 178.36 c 29.37,0 53.59,-4.371 72.65,-13.09 36.2,-16.75 54.3,-47.64 54.3,-92.691 0,-23.5 -4.86,-42.738 -14.56,-57.692 -9.71,-14.957 -23.29,-26.976 -40.74,-36.066 15.32,-6.23 26.85,-14.422 34.59,-24.57 7.75,-10.153 12.07,-26.633 12.96,-49.41 l 1.87,-52.633 c 0.53,-14.949 1.78,-26.078 3.74,-33.387 3.21,-12.461 8.9,-20.473 17.09,-24.031 v -8.821 h -65.17 c -1.78,3.379 -3.21,7.75 -4.28,13.09 -1.06,5.34 -1.95,15.672 -2.67,30.989 l -3.2,65.441 c -1.21,25.641 -10.47,42.832 -27.77,51.551 -9.86,4.801 -25.35,7.211 -46.45,7.211 H 1396.59 V 551.48 h -53.16 v 392.391"
         style="fill:#040606;fill-opacity:1;fill-rule:nonzero;stroke:none"
         id="path24" />
      <path
         d="m 1934.72,712.281 -60.41,173.348 -62.78,-173.348 z m -88.14,231.59 h 60 L 2049,551.48 h -58.23 l -40.96,117.532 H 1795.87 L 1753.31,551.48 h -54.49 l 147.76,392.391"
         style="fill:#040606;fill-opacity:1;fill-rule:nonzero;stroke:none"
         id="path26" />
      <path
         d="m 2096.94,943.871 h 62.62 l 195.68,-317.039 v 317.039 h 50.75 V 551.48 h -59.72 L 2147.69,868.129 V 551.48 h -50.75 v 392.391"
         style="fill:#040606;fill-opacity:1;fill-rule:nonzero;stroke:none"
         id="path28" />
      <path
         d="m 2678.7,678.09 c 1.2,-22.258 6.27,-40.328 15.18,-54.219 16.99,-26 46.92,-39 89.8,-39 19.22,0 36.71,2.84 52.49,8.551 30.54,11.039 45.8,30.808 45.8,59.289 0,21.371 -6.47,36.609 -19.41,45.687 -13.11,8.891 -33.64,16.641 -61.58,23.231 l -51.49,12.023 c -33.64,7.828 -57.45,16.469 -71.42,25.907 -24.15,16.39 -36.23,40.871 -36.23,73.461 0,35.25 11.87,64.191 35.61,86.8 23.74,22.621 57.36,33.93 100.86,33.93 40.03,0 74.03,-9.93 102.02,-29.789 27.99,-19.852 41.98,-51.59 41.98,-95.219 h -49.95 c -2.57,21.008 -8.03,37.129 -16.4,48.348 -15.53,20.48 -41.91,30.711 -79.13,30.711 -30.05,0 -51.64,-6.582 -64.79,-19.762 -13.15,-13.18 -19.71,-28.488 -19.71,-45.937 0,-19.243 7.75,-33.301 23.29,-42.211 10.18,-5.7 33.21,-12.821 69.1,-21.371 l 53.31,-12.54 c 25.72,-6.07 45.55,-14.339 59.52,-24.851 24.17,-18.34 36.25,-44.969 36.25,-79.859 0,-43.461 -15.42,-74.528 -46.25,-93.219 C 2856.72,549.34 2820.9,540 2780.1,540 c -47.58,0 -84.84,12.461 -111.75,37.391 -26.93,24.75 -40.13,58.32 -39.59,100.699 h 49.94"
         style="fill:#040606;fill-opacity:1;fill-rule:nonzero;stroke:none"
         id="path30" />
      <path
         d="m 3211.5,712.281 -60.41,173.348 -62.77,-173.348 z m -88.14,231.59 h 60.01 L 3325.78,551.48 h -58.23 l -40.97,117.532 H 3072.64 L 3030.08,551.48 h -54.48 l 147.76,392.391"
         style="fill:#040606;fill-opacity:1;fill-rule:nonzero;stroke:none"
         id="path32" />
      <path
         d="m 3408.45,678.09 c 1.2,-22.258 6.26,-40.328 15.18,-54.219 16.98,-26 46.91,-39 89.79,-39 19.22,0 36.71,2.84 52.49,8.551 30.54,11.039 45.81,30.808 45.81,59.289 0,21.371 -6.47,36.609 -19.41,45.687 -13.11,8.891 -33.64,16.641 -61.58,23.231 l -51.5,12.023 c -33.64,7.828 -57.44,16.469 -71.41,25.907 -24.16,16.39 -36.23,40.871 -36.23,73.461 0,35.25 11.87,64.191 35.6,86.8 23.74,22.621 57.37,33.93 100.86,33.93 40.03,0 74.04,-9.93 102.02,-29.789 27.99,-19.852 41.99,-51.59 41.99,-95.219 h -49.95 c -2.57,21.008 -8.03,37.129 -16.4,48.348 -15.54,20.48 -41.91,30.711 -79.13,30.711 -30.05,0 -51.64,-6.582 -64.8,-19.762 -13.14,-13.18 -19.7,-28.488 -19.7,-45.937 0,-19.243 7.75,-33.301 23.29,-42.211 10.17,-5.7 33.21,-12.821 69.1,-21.371 l 53.31,-12.54 c 25.71,-6.07 45.55,-14.339 59.52,-24.851 24.16,-18.34 36.24,-44.969 36.24,-79.859 0,-43.461 -15.42,-74.528 -46.24,-93.219 C 3586.47,549.34 3550.65,540 3509.85,540 c -47.59,0 -84.84,12.461 -111.76,37.391 -26.93,24.75 -40.12,58.32 -39.59,100.699 h 49.95"
         style="fill:#040606;fill-opacity:1;fill-rule:nonzero;stroke:none"
         id="path34" />
      <path
         d="m 3773.33,678.09 c 1.2,-22.258 6.26,-40.328 15.17,-54.219 16.98,-26 46.92,-39 89.8,-39 19.22,0 36.71,2.84 52.49,8.551 30.53,11.039 45.8,30.808 45.8,59.289 0,21.371 -6.47,36.609 -19.41,45.687 -13.11,8.891 -33.64,16.641 -61.58,23.231 l -51.49,12.023 c -33.64,7.828 -57.44,16.469 -71.42,25.907 -24.16,16.39 -36.23,40.871 -36.23,73.461 0,35.25 11.88,64.191 35.61,86.8 23.74,22.621 57.36,33.93 100.86,33.93 40.03,0 74.03,-9.93 102.02,-29.789 27.99,-19.852 41.98,-51.59 41.98,-95.219 h -49.95 c -2.57,21.008 -8.03,37.129 -16.4,48.348 -15.53,20.48 -41.91,30.711 -79.13,30.711 -30.05,0 -51.64,-6.582 -64.79,-19.762 -13.15,-13.18 -19.71,-28.488 -19.71,-45.937 0,-19.243 7.75,-33.301 23.29,-42.211 10.18,-5.7 33.21,-12.821 69.1,-21.371 l 53.31,-12.54 c 25.72,-6.07 45.55,-14.339 59.52,-24.851 24.16,-18.34 36.24,-44.969 36.24,-79.859 0,-43.461 -15.42,-74.528 -46.24,-93.219 C 3951.34,549.34 3915.52,540 3874.72,540 c -47.58,0 -84.84,12.461 -111.75,37.391 -26.94,24.75 -40.13,58.32 -39.59,100.699 h 49.95"
         style="fill:#040606;fill-opacity:1;fill-rule:nonzero;stroke:none"
         id="path36" />
      <path
         d="m 4379.79,637.66 c 20.93,33.602 31.39,72.231 31.39,115.891 0,46.168 -12.06,83.32 -36.19,111.48 -24.13,28.16 -57.12,42.239 -98.97,42.239 -40.59,0 -73.72,-13.95 -99.36,-41.84 -25.64,-27.891 -38.46,-69.02 -38.46,-123.371 0,-43.489 10.99,-80.161 32.99,-110.008 21.98,-29.852 57.64,-44.781 106.97,-44.781 46.84,0 80.71,16.8 101.63,50.39 z m 46.89,250.11 c 25.99,-34.719 38.99,-79.161 38.99,-133.29 0,-58.582 -14.87,-107.281 -44.61,-146.101 -34.9,-45.59 -84.67,-68.379 -149.31,-68.379 -60.37,0 -107.83,19.941 -142.37,59.832 -30.81,38.457 -46.21,87.066 -46.21,145.84 0,53.058 13.17,98.469 39.53,136.219 33.84,48.441 83.88,72.66 150.12,72.66 69.27,0 120.56,-22.27 153.86,-66.781"
         style="fill:#040606;fill-opacity:1;fill-rule:nonzero;stroke:none"
         id="path38" />
      <path
         d="m 49.9609,138.09 c 1.2032,-22.258 6.2618,-40.3283 15.1836,-54.2189 16.9805,-26 46.9145,-39 89.7965,-39 19.211,0 36.707,2.8398 52.493,8.5508 30.531,11.039 45.8,30.8086 45.8,59.2891 0,21.371 -6.468,36.609 -19.41,45.687 -13.109,8.891 -33.636,16.641 -61.582,23.231 l -51.496,12.023 c -33.6405,7.828 -57.4452,16.469 -71.4179,25.907 -24.1523,16.39 -36.2265,40.871 -36.2265,73.461 0,35.25 11.8711,64.191 35.6093,86.8 23.7422,22.621 57.3591,33.93 100.8551,33.93 40.032,0 74.036,-9.93 102.024,-29.789 27.98,-19.852 41.976,-51.59 41.976,-95.219 h -49.953 c -2.558,21.008 -8.019,37.129 -16.386,48.348 -15.536,20.48 -41.914,30.711 -79.129,30.711 -30.051,0 -51.6527,-6.582 -64.7972,-19.762 -13.1445,-13.18 -19.7149,-28.488 -19.7149,-45.937 0,-19.243 7.7618,-33.301 23.2891,-42.211 10.1836,-5.7 33.219,-12.821 69.102,-21.371 l 53.316,-12.54 c 25.707,-6.07 45.551,-14.339 59.523,-24.851 24.161,-18.34 36.235,-44.969 36.235,-79.859 0,-43.4614 -15.41,-74.5278 -46.235,-93.2192 C 227.984,9.33984 192.168,0 151.359,0 103.77,0 66.5234,12.4609 39.6094,37.3906 12.6758,62.1406 -0.519531,95.7109 0.015625,138.09 H 49.9609"
         style="fill:#f57724;fill-opacity:1;fill-rule:nonzero;stroke:none"
         id="path40" />
      <path
         d="m 657.629,375.281 c 27.105,-26.172 42.152,-55.922 45.144,-89.211 h -51.82 c -5.769,25.289 -17.269,45.321 -34.492,60.102 -17.231,14.777 -41.406,22.168 -72.535,22.168 -37.949,0 -68.594,-13.59 -91.942,-40.77 -23.343,-27.179 -35.015,-68.84 -35.015,-124.968 0,-45.993 10.539,-83.282 31.617,-111.8911 21.078,-28.6015 52.523,-42.9023 94.332,-42.9023 38.48,0 67.781,15.0508 87.898,45.1406 10.668,15.8518 18.629,36.6798 23.875,62.5118 h 51.825 C 701.934,114.141 686.797,79.5 661.102,51.5508 630.293,17.8906 588.75,1.05859 536.477,1.05859 c -45.067,0 -82.911,13.81251 -113.536,41.43361 -40.308,36.5273 -60.464,92.9298 -60.464,169.1988 0,57.899 15.136,105.391 45.41,142.457 32.734,40.262 77.883,60.403 135.429,60.403 49.106,0 87.207,-13.09 114.313,-39.27"
         style="fill:#f57724;fill-opacity:1;fill-rule:nonzero;stroke:none"
         id="path42" />
      <path
         d="m 787.18,403.871 h 53.691 V 11.4805 H 787.18 V 403.871"
         style="fill:#f57724;fill-opacity:1;fill-rule:nonzero;stroke:none"
         id="path44" />
      <path
         d="M 932.219,403.871 H 1216.95 V 355.789 H 984.039 V 236.66 H 1199.33 V 191.25 H 984.039 V 58.2305 h 236.921 v -46.75 H 932.219 V 403.871"
         style="fill:#f57724;fill-opacity:1;fill-rule:nonzero;stroke:none"
         id="path46" />
      <path
         d="m 1292.01,403.871 h 62.62 L 1550.3,86.832 v 317.039 h 50.76 V 11.4805 h -59.72 L 1342.76,328.129 V 11.4805 h -50.75 V 403.871"
         style="fill:#f57724;fill-opacity:1;fill-rule:nonzero;stroke:none"
         id="path48" />
      <path
         d="m 1964.59,375.281 c 27.1,-26.172 42.15,-55.922 45.14,-89.211 h -51.82 c -5.77,25.289 -17.27,45.321 -34.49,60.102 -17.23,14.777 -41.41,22.168 -72.54,22.168 -37.94,0 -68.59,-13.59 -91.94,-40.77 -23.34,-27.179 -35.01,-68.84 -35.01,-124.968 0,-45.993 10.53,-83.282 31.61,-111.8911 21.08,-28.6015 52.53,-42.9023 94.33,-42.9023 38.49,0 67.79,15.0508 87.9,45.1406 10.67,15.8518 18.63,36.6798 23.88,62.5118 h 51.82 C 2008.89,114.141 1993.76,79.5 1968.06,51.5508 1937.25,17.8906 1895.71,1.05859 1843.43,1.05859 c -45.06,0 -82.91,13.81251 -113.53,41.43361 -40.31,36.5273 -60.47,92.9298 -60.47,169.1988 0,57.899 15.14,105.391 45.41,142.457 32.74,40.262 77.89,60.403 135.43,60.403 49.11,0 87.21,-13.09 114.32,-39.27"
         style="fill:#f57724;fill-opacity:1;fill-rule:nonzero;stroke:none"
         id="path50" />
      <path
         d="m 2087.19,403.871 h 284.74 V 355.789 H 2139.01 V 236.66 H 2354.3 V 191.25 H 2139.01 V 58.2305 h 236.93 v -46.75 H 2087.19 V 403.871"
         style="fill:#f57724;fill-opacity:1;fill-rule:nonzero;stroke:none"
         id="path52" />
      <path
         d="m 2610.99,403.871 h 53.69 V 11.4805 h -53.69 V 403.871"
         style="fill:#040606;fill-opacity:1;fill-rule:nonzero;stroke:none"
         id="path54" />
      <path
         d="m 2750.95,403.871 h 62.62 L 3009.24,86.832 V 403.871 H 3060 V 11.4805 h -59.72 L 2801.71,328.129 V 11.4805 h -50.76 V 403.871"
         style="fill:#040606;fill-opacity:1;fill-rule:nonzero;stroke:none"
         id="path56" />
      <path
         d="m 3180.73,138.09 c 1.2,-22.258 6.26,-40.3283 15.17,-54.2189 16.99,-26 46.92,-39 89.8,-39 19.22,0 36.71,2.8398 52.49,8.5508 30.54,11.039 45.8,30.8086 45.8,59.2891 0,21.371 -6.46,36.609 -19.4,45.687 -13.12,8.891 -33.65,16.641 -61.59,23.231 l -51.49,12.023 c -33.64,7.828 -57.44,16.469 -71.42,25.907 -24.16,16.39 -36.23,40.871 -36.23,73.461 0,35.25 11.88,64.191 35.61,86.8 23.74,22.621 57.36,33.93 100.86,33.93 40.03,0 74.03,-9.93 102.02,-29.789 27.99,-19.852 41.98,-51.59 41.98,-95.219 h -49.95 c -2.57,21.008 -8.03,37.129 -16.4,48.348 -15.53,20.48 -41.91,30.711 -79.13,30.711 -30.05,0 -51.64,-6.582 -64.79,-19.762 -13.15,-13.18 -19.71,-28.488 -19.71,-45.937 0,-19.243 7.76,-33.301 23.29,-42.211 10.18,-5.7 33.22,-12.821 69.1,-21.371 l 53.31,-12.54 c 25.72,-6.07 45.55,-14.339 59.53,-24.851 24.16,-18.34 36.24,-44.969 36.24,-79.859 0,-43.4614 -15.42,-74.5278 -46.24,-93.2192 C 3358.75,9.33984 3322.93,0 3282.13,0 c -47.59,0 -84.85,12.4609 -111.76,37.3906 -26.94,24.75 -40.13,58.3203 -39.59,100.6994 h 49.95"
         style="fill:#040606;fill-opacity:1;fill-rule:nonzero;stroke:none"
         id="path58" />
      <path
         d="m 3796.15,403.871 v -46.75 H 3663.92 V 11.4805 h -53.68 V 357.121 h -132.22 v 46.75 h 318.13"
         style="fill:#040606;fill-opacity:1;fill-rule:nonzero;stroke:none"
         id="path60" />
      <path
         d="m 3857.05,403.871 h 53.68 V 11.4805 h -53.68 V 403.871"
         style="fill:#040606;fill-opacity:1;fill-rule:nonzero;stroke:none"
         id="path62" />
      <path
         d="m 4282.28,403.871 v -46.75 H 4150.05 V 11.4805 h -53.68 V 357.121 h -132.21 v 46.75 h 318.12"
         style="fill:#040606;fill-opacity:1;fill-rule:nonzero;stroke:none"
         id="path64" />
      <path
         d="M 4388.59,403.871 V 161.332 c 0,-28.492 5.38,-52.184 16.15,-71.0507 15.97,-28.4922 42.89,-42.7422 80.77,-42.7422 45.41,0 76.28,15.4101 92.62,46.2109 8.79,16.742 13.19,39.27 13.19,67.582 v 242.539 h 53.69 V 183.5 c 0,-48.258 -6.53,-85.3906 -19.56,-111.3789 C 4601.5,24.75 4556.29,1.05859 4489.82,1.05859 4423.35,1.05859 4378.23,24.75 4354.46,72.1211 4341.41,98.1094 4334.9,135.242 4334.9,183.5 v 220.371 h 53.69"
         style="fill:#040606;fill-opacity:1;fill-rule:nonzero;stroke:none"
         id="path66" />
      <path
         d="m 5011.48,403.871 v -46.75 H 4879.25 V 11.4805 h -53.68 V 357.121 h -132.21 v 46.75 h 318.12"
         style="fill:#040606;fill-opacity:1;fill-rule:nonzero;stroke:none"
         id="path68" />
      <path
         d="m 5065.44,403.871 h 284.73 V 355.789 H 5117.25 V 236.66 h 215.29 V 191.25 H 5117.25 V 58.2305 h 236.93 v -46.75 H 5065.44 V 403.871"
         style="fill:#040606;fill-opacity:1;fill-rule:nonzero;stroke:none"
         id="path70" />
      <path
         d="M 4477.93,5102.04 H 2678.56 V 3247.55 h 1799.37 z m -30,-30 V 3277.55 H 2708.56 v 1794.49 h 1739.37"
         style="fill:#f57724;fill-opacity:1;fill-rule:nonzero;stroke:none"
         id="path72" />
    </g>
  </g>
</svg>
