<svg id="Layer_1" data-name="Layer 1" xmlns="http://www.w3.org/2000/svg" viewBox="0 0 171.58 146.4"><defs><style>.cls-1,.cls-2{fill:#9b9fa8;}.cls-1,.cls-3{fill-rule:evenodd;}.cls-3{fill:#0060ac;}</style></defs><path class="cls-1" d="M303.25,310h1.69a2.47,2.47,0,0,1,2.76,2.52,2.62,2.62,0,0,1-2.68,2.8h-1.77V310Zm0,7.84h1.8a2.88,2.88,0,1,1,.1,5.76h-1.9v-5.76Zm-3.33,8.39h5.72c3.32,0,5.82-1.86,5.82-5.27a4.25,4.25,0,0,0-3.54-4.49v-.05a4.19,4.19,0,0,0,3.11-4.33c0-3.17-1.77-4.62-5.63-4.62h-5.48v18.76Z" transform="translate(-299.92 -179.99)"/><path class="cls-1" d="M313.86,326.26h3.43V318.2h.78a2.42,2.42,0,0,1,2.6,2l1.85,6.1h3.65l-2.44-7.15c-.59-1.75-1.37-2.07-2.06-2.18v-.08a4.21,4.21,0,0,0,3.62-4.41c0-3.44-2.26-4.94-5.58-4.94h-5.85v18.76Zm3.43-10.59v-5.54h1.4c1.93,0,3.06.54,3.06,2.69,0,1.91-1.24,2.85-3.06,2.85Z" transform="translate(-299.92 -179.99)"/><path class="cls-2" d="M328,307.5v12.06c0,4.91,2.84,6.83,6.38,6.83s6.36-1.92,6.36-6.83V307.5h-3.44v12.06c0,3.1-1,4.11-2.92,4.11s-2.95-1-2.95-4.11V307.5Z" transform="translate(-299.92 -179.99)"/><polygon class="cls-2" points="43.75 146.27 46.86 146.27 46.86 131.65 46.91 131.65 53.11 146.27 57.21 146.27 57.21 127.51 54.1 127.51 54.1 142.24 54.05 142.24 47.83 127.51 43.75 127.51 43.75 146.27 43.75 146.27"/><path class="cls-1" d="M363.32,317c0-5,1.74-6.82,3.91-6.82s3.92,1.81,3.92,6.82-1.74,6.82-3.92,6.82-3.91-1.81-3.91-6.82Zm-3.54,0c0,6.55,3.56,9.37,7.45,9.37s7.46-2.82,7.46-9.37-3.57-9.38-7.46-9.38-7.45,2.82-7.45,9.38Z" transform="translate(-299.92 -179.99)"/><polygon class="cls-2" points="84.14 146.27 87.57 146.27 87.57 137.49 87.65 137.49 93.28 146.27 97.44 146.27 90.57 136.39 96.93 127.58 92.99 127.58 87.65 135.51 87.57 135.51 87.57 127.58 84.14 127.58 84.14 146.27 84.14 146.27"/><polygon class="cls-2" points="99.26 146.27 109.37 146.27 109.37 143.53 102.69 143.53 102.69 137.99 108.75 137.99 108.75 135.25 102.69 135.25 102.69 130.25 109.1 130.25 109.1 127.51 99.26 127.51 99.26 146.27 99.26 146.27"/><path class="cls-2" d="M411.08,325.45a8.76,8.76,0,0,0,4.27.81c3.57,0,6.28-1.77,6.28-5.47,0-2.55-1.05-3.69-3.25-4.89l-2-1.09c-1.05-.57-2-1.1-2-2.45s.89-2.13,2.6-2.13a9.18,9.18,0,0,1,3.52.78l.16-2.79a12.78,12.78,0,0,0-3.92-.65c-3.14,0-5.9,1.7-5.9,4.95a5.1,5.1,0,0,0,3.06,4.76l1.74.94c1.67.88,2.44,1.46,2.44,2.76a2.56,2.56,0,0,1-2.84,2.63,7.9,7.9,0,0,1-4-1.12l-.19,3Z" transform="translate(-299.92 -179.99)"/><path class="cls-2" d="M423.15,325.45a8.76,8.76,0,0,0,4.27.81c3.57,0,6.27-1.77,6.27-5.47,0-2.55-1-3.69-3.24-4.89l-2-1.09c-1.05-.57-2-1.1-2-2.45s.89-2.13,2.6-2.13a9.23,9.23,0,0,1,3.52.78l.16-2.79a12.78,12.78,0,0,0-3.92-.65c-3.14,0-5.9,1.7-5.9,4.95a5.1,5.1,0,0,0,3.06,4.76l1.74.94c1.67.88,2.44,1.46,2.44,2.76a2.56,2.56,0,0,1-2.84,2.63,7.9,7.9,0,0,1-4-1.12l-.19,3Z" transform="translate(-299.92 -179.99)"/><polygon class="cls-2" points="135.84 146.34 145.44 146.34 145.44 143.6 139.27 143.6 139.27 127.58 135.84 127.58 135.84 146.34 135.84 146.34"/><polygon class="cls-2" points="147.37 146.27 157.48 146.27 157.48 143.53 150.8 143.53 150.8 137.99 156.86 137.99 156.86 135.25 150.8 135.25 150.8 130.25 157.21 130.25 157.21 127.51 147.37 127.51 147.37 146.27 147.37 146.27"/><path class="cls-1" d="M459.19,326.26h3.43V318.2h.78a2.42,2.42,0,0,1,2.6,2l1.85,6.1h3.65l-2.44-7.15c-.59-1.75-1.37-2.07-2.07-2.18v-.08a4.21,4.21,0,0,0,3.63-4.41c0-3.44-2.26-4.94-5.58-4.94h-5.85v18.76Zm3.43-10.59v-5.54H464c1.93,0,3.05.54,3.05,2.69,0,1.91-1.23,2.85-3.05,2.85Z" transform="translate(-299.92 -179.99)"/><polygon class="cls-2" points="0.01 123.69 3.44 123.69 3.44 115.56 9.21 115.56 9.21 112.83 3.44 112.83 3.44 107.74 9.47 107.74 9.47 105.01 0.01 105.01 0.01 123.69 0.01 123.69"/><path class="cls-1" d="M315.13,294.38c0-5,1.74-6.82,3.91-6.82s3.92,1.8,3.92,6.82-1.74,6.82-3.92,6.82-3.91-1.81-3.91-6.82Zm-3.54,0c0,6.56,3.56,9.38,7.45,9.38s7.46-2.82,7.46-9.38S322.93,285,319,285s-7.45,2.82-7.45,9.38Z" transform="translate(-299.92 -179.99)"/><polygon class="cls-2" points="28.96 123.69 32.07 123.69 32.07 109.13 32.13 109.13 38.32 123.69 42.43 123.69 42.43 105.01 39.32 105.01 39.32 119.68 39.26 119.68 33.04 105.01 28.96 105.01 28.96 123.69 28.96 123.69"/><path class="cls-1" d="M344.78,303.76h4.88c5.2,0,9-3.07,9-9.38s-3.12-9.38-9-9.38h-4.88v18.76Zm3.43-16.13h1.15c3.87,0,5.61,2.64,5.61,6.75s-1.74,6.74-5.61,6.74h-1.15V287.63Z" transform="translate(-299.92 -179.99)"/><path class="cls-1" d="M365,296.56l2.57-8.72h.06l2.36,8.72Zm7,7.12h3.54l-6-18.68h-3.75l-6.28,18.68h3.43l1.35-4.49h6.43l1.32,4.49Z" transform="translate(-299.92 -179.99)"/><polygon class="cls-2" points="77.27 123.73 88.75 123.73 88.75 121 81.19 121 88.64 107.85 88.64 105.01 77.49 105.01 77.49 107.75 84.65 107.75 77.27 120.73 77.27 123.73 77.27 123.73"/><polygon class="cls-2" points="90.92 123.69 94.36 123.69 94.36 104.99 90.92 104.99 90.92 123.69 90.92 123.69"/><path class="cls-1" d="M400,294.36c0-5,1.74-6.81,3.91-6.81s3.92,1.8,3.92,6.81-1.75,6.81-3.92,6.81-3.91-1.8-3.91-6.81Zm-3.54,0c0,6.54,3.56,9.36,7.45,9.36s7.46-2.82,7.46-9.36-3.57-9.36-7.46-9.36-7.45,2.82-7.45,9.36Z" transform="translate(-299.92 -179.99)"/><polygon class="cls-2" points="113.54 123.72 116.66 123.72 116.66 109.14 116.71 109.14 122.9 123.72 127.01 123.72 127.01 105.01 123.9 105.01 123.9 119.7 123.84 119.7 117.62 105.01 113.54 105.01 113.54 123.72 113.54 123.72"/><polygon class="cls-2" points="129.33 123.69 139.45 123.69 139.45 120.96 132.77 120.96 132.77 115.45 138.83 115.45 138.83 112.72 132.77 112.72 132.77 107.74 139.18 107.74 139.18 105.01 129.33 105.01 129.33 123.69 129.33 123.69"/><path class="cls-3" d="M412.52,217.49,450,180h21.45l-45,45,45,45H450L412.52,232.5v-15ZM360,255v15h18.58a26.27,26.27,0,1,0-.19-52.53H360v15h18.59a11.26,11.26,0,1,1,0,22.51Zm-60.11-75H345v15H299.92V180Zm0,37.49H345v15H299.92v-15Z" transform="translate(-299.92 -179.99)"/></svg>